<svg xmlns="http://www.w3.org/2000/svg" xml:space="preserve" width="800" height="800" viewBox="0 0 512 512"><path fill="orange" d="M36 273.9H0c4 57.3 26.8 109.5 62.4 150.4l25.4-25.4a219.8 219.8 0 0 1-51.9-125z"/>
    <path fill="tomato" d="m113.1 424.2-25.4 25.4c40.9 35.6 93 58.4 150.4 62.4v-36a219.9 219.9 0 0 1-125-51.8z"/>
    <path fill="#FF0"
          d="M238.1 321.6v-22.4l-99.6 99.6c27.7 22.8 62 37.7 99.6 41.3v-70.7a23.9 23.9 0 0 1 0-47.7zM199.2 224.5a23.8 23.8 0 0 1-31-31l-55-55a184.2 184.2 0 0 0-41.3 99.6h140.9l-13.6-13.6z"/>
    <path fill="tomato"
          d="M62.4 87.7A255.6 255.6 0 0 0 0 238.1h36a219.8 219.8 0 0 1 51.8-125L62.4 87.7zM163.3 273.9a23.9 23.9 0 1 1-41.3 0H71.9c3.6 37.6 18.5 72 41.3 99.6l99.6-99.6h-49.5z"/>
    <path fill="#FF0"
          d="M226.2 142.6a23.9 23.9 0 1 1 12-44.5V71.9c-37.7 3.6-72 18.5-99.7 41.3l99.6 99.6v-73.4c-3.6 2-7.7 3.2-12 3.2zM299.2 273.9l30.2 30.2a23.7 23.7 0 0 1 33 .7c9 9 9.3 23.6.7 33l35.7 35.7c22.8-27.7 37.7-62 41.3-99.6H299.2z"/>
    <path fill="orange" d="M398.9 424.2a219.8 219.8 0 0 1-125 51.9V512c57.3-4 109.5-26.8 150.4-62.4l-25.4-25.4z"/>
    <path fill="#32CD32"
          d="m373.5 398.8-99.6-99.6v141c7.5-.8 14.9-2 22-3.6a23.9 23.9 0 1 1 36.4-12.2 185.4 185.4 0 0 0 41.2-25.6z"/>
    <path fill="orange"
          d="M87.7 62.4 62.4 87.8c34.2-29.2 77.5-48 125-51.9V0c-6.6 4-58.8 26.8-99.7 62.4zM476 273.9a219.9 219.9 0 0 1-51.8 125l25.4 25.4c35.6-40.9 58.4-93 62.4-150.4h-36z"/></svg>