<svg xmlns="http://www.w3.org/2000/svg" width="1498" height="483" fill="none" viewBox="0 0 1498 483">
    <path fill="#228B22"
          d="M38.8 236.7c-.1 1-2.2 9.5-6 25.5-4 16-6.8 26.1-8.4 30.3-.6 1.7-2.4 3-5.5 3.8-3.1.9-5.4 1.3-6.8 1.3-3.4 0-6.2-1.1-8.5-3.3-2.2-2.1-3.4-5.4-3.6-9.7l16.3-66.7c6.2-24.3 11.3-45 15.3-62.2 0-1-.5-3.4-1.6-7.5a277 277 0 0 0-2.3-11.8c.3-2 1.9-3.6 4.8-4.9 2.8-1.2 5.5-1.8 8-1.8 3.7 0 7.4 1.3 11 4 3.6 2.5 5.7 5.7 6.2 9.4l-.7 6c7-8.6 15.8-13 26.7-13 8.8 0 16.4 2.2 22.9 6.4 6.4 4.3 11.3 10 14.7 17.2a55.1 55.1 0 0 1 5.1 23.8c0 11.7-2.2 22.6-6.7 32.8A55.3 55.3 0 0 1 67 250.4c-4 0-9.3-1.3-15.6-4-6.4-2.7-10.5-6-12.6-9.7Zm7.2-29.5a16.7 16.7 0 0 0 3.4 14.2c2.4 3 5.2 5.2 8.5 6.8a19 19 0 0 0 8.1 2.5c6.8 0 12.8-2.6 18-7.8a51.8 51.8 0 0 0 12-19.3 64 64 0 0 0 4.2-22c0-6.4-1.8-12.2-5.2-17.2-3.5-5-8-7.6-13.2-7.6-5.9 0-10.7 1.3-14.5 3.9a74.1 74.1 0 0 0-12.9 11.7L46 207.2ZM162.4 109c0-4.8 1.5-9 4.5-12.8 3-3.7 7.3-5.6 12.7-5.6 5.7 0 10.7 1.8 15 5.4 4.2 3.5 6.4 7.6 6.4 12 0 4.6-2.2 8.4-6.5 11.7a24.5 24.5 0 0 1-15.1 4.9c-5.6 0-9.8-1.5-12.7-4.4a15.2 15.2 0 0 1-4.3-11.2Zm24.4 41.1c-8.2 33.4-14.5 58.6-18.8 75.5-.6 2.5-1 5.2-1 8.1l.3 6.5c0 2.7-.8 4.5-2.5 5.6-1.6 1-5 1.7-10.3 1.9-5.1 0-9-.6-11.6-1.7-2.6-1-4-3.4-4-7 0-1.6 2-10.7 6-27.1 3.9-16.4 9.3-37.8 16.1-64.1l-5.3-7c-.5-.5-.7-1-.7-1.6 0-1.6 1.7-2.8 5-3.9a53 53 0 0 1 14.2-1.5c5.3 0 8.7 1.5 10.1 4.6 1.5 3 2.3 6.9 2.5 11.7Zm91.7 95.5a5340.8 5340.8 0 0 0-76.6 8.8c-2.8 0-5.3-.4-7.6-1.2-2.2-.7-3.5-1.8-3.8-3l-1.9-4.2c-.9-2-1.3-3.7-1.3-5 0-1.5.3-2.6 1.1-3.3.8-1 2.4-1.7 5-2.1a36 36 0 0 1 5.2-.7c7.5-7.8 17.3-18.4 29.5-31.8 17-18.6 30-32.2 38.8-41l-46.2 4.5c-4.8 0-7.2-2.4-7.2-7.2 0-3.9 1.4-7.7 4.2-11.6.8-1.1 6.9-2.3 18.3-3.7a1106.5 1106.5 0 0 1 63.4-5.6c6 0 8.9 3.4 8.9 10.2a9 9 0 0 1-2.1 5.7 13.6 13.6 0 0 1-5.1 4l-5.2 4.5c-8.5 8.6-19 19.7-31.3 33.2l-31.1 33c24.4-3.1 40-4.7 46.9-4.7 5.9 0 8.8 3.4 8.8 10.2 0 2.7-1.1 5-3.4 7.1a14.1 14.1 0 0 1-7.3 3.9Zm110.3 0a5340.8 5340.8 0 0 0-76.6 8.8c-2.8 0-5.3-.4-7.6-1.2-2.2-.7-3.5-1.8-3.8-3l-1.9-4.2c-1-2-1.4-3.7-1.4-5 0-1.5.4-2.6 1.2-3.3.8-1 2.4-1.7 5-2.1 2.5-.5 4.3-.7 5.2-.7 7.4-7.8 17.3-18.4 29.5-31.8 17-18.6 30-32.2 38.8-41l-46.2 4.5c-4.8 0-7.2-2.4-7.2-7.2 0-3.9 1.4-7.7 4.2-11.6.7-1.1 6.8-2.3 18.3-3.7a1101.7 1101.7 0 0 1 63.4-5.6c5.9 0 8.8 3.4 8.8 10.2a9 9 0 0 1-2 5.7 13.6 13.6 0 0 1-5.2 4l-5 4.5c-8.6 8.6-19 19.7-31.4 33.2l-31.2 33c24.5-3.1 40.2-4.7 47-4.7 5.8 0 8.8 3.4 8.8 10.2 0 2.7-1.1 5-3.4 7.1a14.4 14.4 0 0 1-7.3 3.9Zm120.3-10.7c.3 4 .9 7.6 1.6 10.9-.3 1-1.6 1.9-4 2.8-2.4 1-4.5 1.4-6.2 1.4-5.6 0-9.5-.8-12-2.4a8.3 8.3 0 0 1-3.5-7.4c0-3 .3-6.2.9-9.3a37.2 37.2 0 0 1-15 11.5c-6.6 3-11.9 4.6-15.9 4.6-10.4 0-19-3-25.9-9.1-6.9-6-10.3-15.7-10.3-29a73.6 73.6 0 0 1 33.6-62.2 63.8 63.8 0 0 1 35.1-10c2.5 0 5.7.6 9.8 1.9a41.9 41.9 0 0 1 22.5 19c1.2 0 2.7.6 4.4 1.8 1.7 1.2 2.6 2.5 2.6 3.7 0 1.4-.3 2.8-.7 4.2l-17 67.6Zm-10.4-65a17 17 0 0 0-5.5-8.6c-2.7-2.4-5.1-3.5-7.3-3.5-7.1 0-13.8 2.5-20 7.5a57.6 57.6 0 0 0-15.3 18.7 45.9 45.9 0 0 0-3.5 37.2 8.9 8.9 0 0 0 9 6.2c4 0 8.4-1.1 13.4-3.4 5-2.4 9.5-5.5 13.5-9.5 4-3.9 6.5-8 7.8-12.4l7.9-32.3Zm134.2.4c3.6-7 8.5-13 14.7-17.9a79 79 0 0 1 19.2-11.4 45 45 0 0 1 16-3.9c8.1 0 14 1.5 17.5 4.5s5.3 7.8 5.3 14.3a305.2 305.2 0 0 0-18.1 77.1l3.2 11.4a22.8 22.8 0 0 1-7.4 8.5c-3 2-7.8 3.1-14.2 3.1-3.7 0-6.4-1.2-8-3.7a16 16 0 0 1-2.6-9.3 147 147 0 0 1 4.5-34.2 644 644 0 0 1 12.9-46c0-2-1.3-3.2-3.7-3.2-3.3 0-8 2.4-14.2 7.2a85.2 85.2 0 0 0-19.3 24.3 168.6 168.6 0 0 0-17.9 49.6c-.6 2.5-2 4.2-4.1 5.3-2.2 1.1-5.5 1.7-10 1.7a35 35 0 0 1-12.6-1.8c-3-1.2-4.4-3.4-4.4-6.8 20.3-79.8 32.8-129.6 37.6-149.6a172 172 0 0 1-.4-15.8c.4-2.2 2-3.9 5-5 2.8-1.2 5.7-1.7 8.7-1.7 5 0 9.1 1.3 12.5 3.9 3.4 2.6 5.3 6 5.6 10l-25.8 89.4Zm178.8 76c-.6 2.6-2 4.4-4.2 5.4-2.1 1-5 1.5-8.6 1.5-10.7 0-16-2.4-16-7.2l1.4-8.8A132 132 0 0 1 769 247a32.2 32.2 0 0 1-14.7 4.8c-22.9 0-34.3-7.5-34.3-22.5 0-25.5 7.6-53.3 23-83.1a22 22 0 0 1 5.9-7.7c2-1.6 5.7-2.3 10.8-2.3 5.4 0 9.5.7 12.2 2.2 2.7 1.4 4 3.2 4 5.2 0 .5-.8 1.9-2.5 4.2-1.7 2-3.2 4-4.4 6a138.1 138.1 0 0 0-21.9 71c0 2.1.8 3.9 2.4 5.4 1.5 1.6 2.9 2.4 4.1 2.4 3.4 0 9.2-1.7 17.4-5a77.3 77.3 0 0 0 18.6-10l4.7-18.7c5.6-22.5 9-36.3 10.4-41.4 1.7-6.2 4-11.2 6.7-15.2s7-5.9 12.8-5.9c8.3 0 12.4 2.5 12.4 7.4 0 .8-.2 1.8-.6 3-.4 1-.7 2-.8 2.8l-9.3 37.7c-7.5 29.8-12.2 49.5-14.2 59Zm57.8-10c-.9 2.1-1.6 4-2 5.8a44.6 44.6 0 0 1-3.8 7.8c-1 1.6-2.8 2.4-5 2.4l-6.6.2c-3.9 0-7-.8-9.3-2.4-2.3-1.6-3.6-5-4-9.9a93.2 93.2 0 0 0 6.5-18.8 4822.8 4822.8 0 0 1 11-44.1A6407.6 6407.6 0 0 0 877 93a354.3 354.3 0 0 1-.7-19.3c.4-2 2.2-3.6 5.2-4.9 3-1.2 5.8-1.8 8.2-1.8 4 0 8 1.3 12.1 3.9 4.2 2.6 6.4 5.8 6.5 9.5L891 149.2c4.2-4.8 9.3-8.2 15.2-10.2 6-1.9 11.5-2.8 16.6-2.8 7.3 0 13.9 2 19.7 6.2A43.5 43.5 0 0 1 956 159c3.3 7 5 14.2 5 21.8a74 74 0 0 1-8 32.8 67.5 67.5 0 0 1-23 26.5c-10 6.9-21.8 10.3-35.2 10.3-4 0-8.7-1.4-14.3-4.1-5.7-2.8-9.4-6.2-11-10Zm5.6-19.3c2 3.6 5 6.7 9 9.5 4.1 2.8 7.7 4.2 11 4.2a27 27 0 0 0 20-9.7c6-6.4 10.8-14 14.4-23a65.4 65.4 0 0 0 5.3-24c0-5-1.3-9-4-12.3-2.6-3.2-6.4-4.9-11.6-4.9a41.2 41.2 0 0 0-28 11.7c-3.9 3.9-6.6 8.2-8 13.2l-8 35.3Z"/>
    <path fill="#000"
          d="M147.3 330.7c1.2 0 2.7.6 4.4 1.8 1.7 1.3 2.6 2.5 2.8 3.8l.1 1.3c0 3-1.5 6.3-4.4 9.8-3 3.5-6.4 6.4-10 8.8-5.8 4-11.5 6-17.2 6-2.3 0-4.1-.4-5.5-1-1-.5.3-.8 4-.8 4.2 0 9.5-2.4 16-7.3a26.5 26.5 0 0 0 11.6-16c.2-1 .2-2 0-3s-.8-1.4-1.8-1.4c-3 0-7 2.1-12 6.4-2 1.8-4.2 4.1-6.4 7.1s-3.3 5.4-3.3 7.3c0 .3 0 .6.2.9 0 .3 0 .8-.4 1.4-.9 1.8-2.1 1.7-3.7-.3-.4-1-.6-2-.6-3.1 0-3.1.4-6.4 1.4-9.8a22 22 0 0 0-1.8 2.4 35 35 0 0 1-3.2 4.1c-.6.7-1 .7-1.4 0l-.1-.5c0-.2.1-.5.4-.9a86.8 86.8 0 0 0 9.2-12.8 178 178 0 0 1 12.5-26.2c4.3-6.9 8.8-10.3 13.4-10.3l2.5.3 2 .7c2 1.2 3 2.6 3 4.4 0 1.8-.6 3.8-1.7 5.9a53.1 53.1 0 0 1-11.3 13.5c-5.8 5.5-11.5 10-17 13.9a32.1 32.1 0 0 0-3 9.5 54 54 0 0 1 9.7-10.7c4-3.5 7.9-5.2 11.6-5.2Zm-3.2-9.2c8-8 12-14.1 12-18 0-1.6-.6-2.5-1.8-2.5-1 0-2.2.7-3.8 1.9-7 5.3-13.8 15.4-20.3 30.1 4.6-3 9.2-6.9 13.9-11.5Zm37.8 7c3.6 0 5.4 1.8 5.4 5.3 0 1.8-.5 3.3-1.5 4.5a20.4 20.4 0 0 1-8.2 6.5c-3.8 1.9-7 3-9.6 3.1-1 .1-1.5-.2-1.5-.8-.1-.3 0-.4.2-.5h.6a32.7 32.7 0 0 0 16-9.7 6 6 0 0 0 1.2-3.6c0-1.2-.5-1.7-1.6-1.7-.9 0-2 .4-3.6 1.1a35 35 0 0 0-10 7.8 28.2 28.2 0 0 0-6.9 10.8c-.3 1-.5 2.1-.5 3.2 0 1 .4 2 1.3 3 1 1 2.3 1.4 4 1.4 2.1 0 4.4-.6 7-1.6a37.2 37.2 0 0 0 17.7-14.1c.4-.6.8-.7 1.1-.3.3 0 .4.3.4.5s0 .4-.3.7c-2 3.4-4.6 6.4-7.7 9-6 5.1-11.8 7.7-17.5 7.7-4.9 0-8.3-1.4-10.2-4.3a7.5 7.5 0 0 1-1.2-4.2c0-1.6.5-3.6 1.4-5.8 1.6-3.8 5.3-7.8 10.8-11.9 5.5-4 10-6 13.2-6Zm10 30.6c-1 1-1.2 1.8-.7 2.4.6.6 1.1 1 1.8 1 .6 0 1.3-.2 2-.4 2.8-.8 5.7-2.6 8.4-5.2s4.1-5.3 4.1-8c0-1.4-1.6-3-5-4.8l-2.6-1.4c-1.8-1.3-3-2.5-3.4-3.7-1 1.6-2.5 4-4.6 7-.5.5-1 .7-1.3.3-.4-.3-.4-.7-.1-1.2 2.7-3.8 4.6-7 5.4-9.6.5-3.7 3.2-7 8.2-10 4.9-3 9.4-4.5 13.4-4.5 2.6 0 4.4.5 5.5 1.4 1 1 1.5 1.8 1.5 2.7 0 .9-.2 1.9-.7 3a8 8 0 0 1-3.1 3.3c-.4.3-.8.2-1-.2-.2-.4.1-1 .8-1.7.7-.7 1.2-1.7 1.4-2.9.2-1.2-.3-2-1.6-2.2h-.6c-2.7 0-6 1-10 3-3.9 1.9-7 4.4-9.2 7.5a5.7 5.7 0 0 0-1.3 3.5c0 1.2.8 2.3 2.4 3.2a101.6 101.6 0 0 0 7 3.9c.6.4 1.4 1 2.4 2 .9.8 1.4 1.6 1.5 2.4.3 2-.6 4.2-2.9 6.7a26.4 26.4 0 0 1-18.5 7.9c-1.4 0-2.4-.6-3-1.7-.2-.2-.3-.6-.3-1.2s.6-1.5 1.7-2.8c1-1 2.6-2 4.8-3l.5.1c.2.2.2.3.1.6 0 .2-.4.4-1 .7-.7.2-1.4.9-2 1.9Zm43.8-29.3 1.3-.1c5.2-.5 8.4-.7 9.5-.7 1 0 1.6.1 1.6.5s-.8.8-2.3 1.2c-1.6.5-5.5 1-11.7 1.7a119.9 119.9 0 0 1-2.8 5 62.5 62.5 0 0 0-6 14.8l-.2 2.3c0 1 .3 1.7.8 2.4 1 1 2.3 1.1 4 .2a55 55 0 0 0 15-14c.4-.4.7-.4 1.1-.2 1 .4-.7 3.1-5.3 8-4.3 4.6-7.9 7.5-10.8 8.6a13 13 0 0 1-4.3 1c-2.7 0-4.5-1.4-5.3-4-.2-.4-.2-1-.2-1.7 0-2.3 1-6 3.2-10.7-.3.7-1.7 2.4-4 5-.6.7-1 .7-1.4 0v-.5c0-.2 0-.5.3-.9 3.3-4.1 6-7.6 7.8-10.4l2.3-4.3-2.1.2c-.7 0-1.2-.2-1.6-.7-.3-.4-.3-1 0-1.5.4-1.1 2.2-1.7 5.3-1.8 0-.2.2-.2.4-.2l5-9.5a30.4 30.4 0 0 1 2.8-4.7l.4-.4c.3-.4 1-.6 2.4-.6 1.3 0 2.2.4 2.7 1.1.2.3.3.8.3 1.4 0 .7-.3 1.4-.7 2.1a5 5 0 0 1-1.6 1.7 3 3 0 0 0-1 1.1l-5 8.6Zm61.9 7.2c0 3-1.2 6-3.7 9a39.8 39.8 0 0 1-17.9 12.7c-3 1-5.5 1.6-7 1.6-1.6 0-3-.2-4-.5a225 225 0 0 0-6.1 17.4c-.3.8-.4 2-.5 3.3a35 35 0 0 1-3.5 10.8c-.3.8-1.3 1.4-3 2-1.5.4-2.7.7-3.4.7-.6 0-1-.3-1-1l.3-1.1c3.1-6.4 7-15.7 11.8-28a1787.2 1787.2 0 0 0 9.8-26.5c1.5-4.4 2.3-7.6 2.4-9.8 0-.8 1.1-1.2 3.3-1.2 2.2 0 3.2.8 3.2 2.3 0 1.2-.6 2.8-2 4.9-1.3 2-3.2 6.1-5.8 12.3 4-6 7.1-9.8 9.6-11.7 3.2-2.6 6.3-4 9.4-4 1.2 0 2.4.3 3.6.7 2.7 1 4.1 2.4 4.4 4.5v1.6Zm-5-1.5c0-2.3-.9-3.5-2.7-3.5-1 0-2.8.6-5.3 2a41 41 0 0 0-13 13 101.7 101.7 0 0 0-5.6 11.2c4 0 8.6-1.8 13.6-5.4 4.9-3.6 8.6-7.5 11-11.7 1.3-2 2-4 2-5.6Zm20.5-5.5c1.7 0 2.7.5 3 1.6.2.6 0 1.2-.2 1.8a17.4 17.4 0 0 0-1 2.1l-1 2a62.5 62.5 0 0 0-6 14.7l-.2 2.3c0 1 .3 1.7.8 2.4 1 1 2.3 1.1 4 .2a54.4 54.4 0 0 0 15-14c.4-.4.7-.5 1-.3.3.2.5.3.5.5s0 .4-.2.6c-1 1.8-2.8 4.1-5.5 7-4.3 4.6-8 7.5-10.8 8.6a13 13 0 0 1-4.3 1c-2.7 0-4.5-1.4-5.3-4-.2-.4-.2-1-.2-1.7 0-2.3 1-6 3.2-10.7-.3.7-1.7 2.4-4 5-.6.7-1 .7-1.4 0v-.5c0-.2 0-.5.3-.9 3.3-4.1 6-7.6 7.8-10.4-.1-.4 0-.8.2-1.3 1.4-3.8 2.6-5.8 3.6-6h.7Zm8-13.5-.8 3.2c0 .6-.4 1.6-1.3 3-.9 1.3-1.6 2-2 2-3 0-4.4-.7-4.4-2.1 0-.3 1.4-1.6 4.3-3.8l1.8-1.3c1-1 1.7-1.4 2-1.4.3 0 .4.1.4.4Zm31.7 20a40.6 40.6 0 0 0-10.9-2.2c-2.5 0-4.8 1-7 3.1a45 45 0 0 0-6.1 7c-1.1 1.3-1.8 1.7-2.2 1.4-.5-.3-.4-.9 0-1.6l6.8-9.4c1.3-1.8 3-3.2 4.8-4.2.6-.4 1.2-.5 1.7-.5a38.9 38.9 0 0 1 3.3.1c.5 0 1.4.3 2.8.6l2.5.7 7.9 1.8c1-1 2.2-1.7 3.5-2.2 1.2-.5 2.2-.7 2.8-.7.7 0 1.2.3 1.6 1 0 1.7-.9 3.1-2.8 4.2a10 10 0 0 1-4.2 1.8l-1.8-.1a472 472 0 0 0-20.1 17.2l3 1.5c4.7 2.8 8.2 4.1 10.6 4.1 1.5 0 3.2-.5 5.1-1.6 2-1.1 4.6-3.3 8.1-6.6 3.5-3.2 6.2-6.2 8.1-8.8.4-.5.8-.7 1.2-.5.4.2.7.3.7.5a88.8 88.8 0 0 1-15.5 16.4 16.6 16.6 0 0 1-9.9 3.8c-3.2 0-6.8-1.4-11-4-1.6-1-2.9-1.6-4-2-3 2.4-5.3 3.5-6.9 3.5a3 3 0 0 1-1-.2c-.6-.5-.8-1.1-.8-2 0-.7.4-1.6 1.2-2.7 1.3-1.7 3.2-2.6 5.7-2.6 1.2 0 2.5.2 4 .7a399.3 399.3 0 0 0 18.8-17.5Zm42.8 0a40.6 40.6 0 0 0-11-2.2c-2.4 0-4.7 1-7 3.1a45 45 0 0 0-6 7c-1.1 1.3-1.9 1.7-2.3 1.4-.4-.3-.3-.9.1-1.6l6.8-9.4c1.3-1.8 2.9-3.2 4.8-4.2.6-.4 1.2-.5 1.7-.5a38.9 38.9 0 0 1 3.3.1l2.8.6 2.5.7 7.8 1.8c1.1-1 2.3-1.7 3.5-2.2 1.3-.5 2.2-.7 2.9-.7.7 0 1.2.3 1.5 1 0 1.7-.8 3.1-2.8 4.2a10 10 0 0 1-4.1 1.8l-1.8-.1a471.9 471.9 0 0 0-20.2 17.2l3 1.5c4.7 2.8 8.3 4.1 10.6 4.1 1.6 0 3.3-.5 5.2-1.6 1.9-1.1 4.6-3.3 8.1-6.6 3.5-3.2 6.2-6.2 8.1-8.8.3-.5.7-.7 1.2-.5.4.2.6.3.6.5a88.8 88.8 0 0 1-15.5 16.4 16.6 16.6 0 0 1-9.8 3.8c-3.2 0-6.9-1.4-11-4-1.6-1-3-1.6-4-2-3 2.4-5.3 3.5-6.9 3.5a3 3 0 0 1-1.1-.2c-.5-.5-.7-1.1-.7-2 0-.7.4-1.6 1.2-2.7 1.3-1.7 3.2-2.6 5.7-2.6 1.2 0 2.5.2 4 .7a399.3 399.3 0 0 0 18.9-17.5Zm21.3 22.7a9.2 9.2 0 0 1-6.7-3.7 6.2 6.2 0 0 1-1.4-3.8c0-1.4.4-2.7 1-3.9 1.3-2.8 3.5-5.6 6.5-8.3a59.4 59.4 0 0 1 17-10.3c2-.5 3.8-.8 5.6-.8 1.8 0 3.3.5 4.6 1.4 1.3 1 2 1.9 2 3l-.2.5h-.5c-.8-1.4-2.5-2-5-2s-5.4.8-8.6 2.5a40.1 40.1 0 0 0-15.3 13.8c-1.8 2.8-2.7 4.8-2.7 6.1 0 2.5.7 3.8 2.1 3.8 1.5 0 3.6-1.2 6.5-3.5 4.8-4 8-7 9.9-9a79 79 0 0 1 10-10 8 8 0 0 1 3 .8c1 .4 1.4 1 1 1.7a32.3 32.3 0 0 0-6.1 17c0 1 .2 1.7.8 2.4 1 1 2.4 1.1 4.1.2 1.8-1 4.2-2.9 7.4-5.7 3.1-2.9 5.6-5.6 7.5-8.3.3-.4.6-.5 1-.3.3.2.4.3.4.5a58.9 58.9 0 0 1-12.2 13.6 15.1 15.1 0 0 1-8.7 3.5c-2.6 0-4.3-1.3-5.2-3.8-.2-.9-.3-1.8-.3-2.8 0-3 .6-6.2 2-9.6-.4.1-1.6 1.5-3.8 4a60 60 0 0 1-7.8 7.4c-3 2.4-5.6 3.6-8 3.6ZM490 330c1.7 0 2.7.5 3 1.6.2.6.1 1.2-.2 1.8a14.5 14.5 0 0 0-1 2.1l-1 2a62.5 62.5 0 0 0-6 14.7l-.2 2.3c0 1 .3 1.7.8 2.4 1 1 2.3 1.1 4.1.2a54.9 54.9 0 0 0 15-14c.3-.4.6-.5 1-.3.2.2.4.3.4.5s0 .4-.2.6c-1 1.8-2.8 4.1-5.5 7-4.3 4.6-7.9 7.5-10.8 8.6a13 13 0 0 1-4.3 1c-2.7 0-4.5-1.4-5.3-4-.2-.4-.2-1-.2-1.7 0-2.3 1-6 3.2-10.7-.3.7-1.6 2.4-4 5-.6.7-1 .7-1.4 0v-.5c0-.2 0-.5.3-.9 3.4-4.1 6-7.6 7.8-10.4 0-.4 0-.8.3-1.3 1.3-3.8 2.5-5.8 3.5-6h.7Zm8-13.5-.8 3.2c0 .6-.4 1.6-1.3 3-.9 1.3-1.6 2-2 2-3 0-4.4-.7-4.4-2.1 0-.3 1.5-1.6 4.4-3.8l1.7-1.3c1-1 1.7-1.4 2-1.4.3 0 .4.1.4.4Zm33.4 12.8c1.5 0 2.3.8 2.3 2.4 0 1.7-.8 4-2.3 6.9-1.6 2.9-2.7 5.3-3.5 7.1a21 21 0 0 0-2 7.4c0 2 .4 3.1.9 3.8 1 1 2.4 1 4.2.1 1.7-1 4.2-2.9 7.3-5.7 3.1-2.8 5.7-5.5 7.5-8.2.3-.4.6-.5 1-.3s.6.3.6.5l-.2.6a49.8 49.8 0 0 1-13 13.8 12.4 12.4 0 0 1-7.3 2.6c-2.3 0-4-.6-4.9-1.6-1-1-1.4-2.2-1.4-3.7a22.7 22.7 0 0 1 2-9.1c1.2-3 2.2-5.2 3.1-6.8a9.3 9.3 0 0 0 1.4-3.2c0-.5-.3-.8-.8-.8-1 0-3.2 1.4-6.2 4-2 2-5.2 5.7-9.3 11.1a80.8 80.8 0 0 1-7 8.7 16 16 0 0 1-4.5 1.8c-.6 0-.9 0-.9-.3 0-.2 0-.5.2-.8l2-5.6a3975.8 3975.8 0 0 0 8.1-23c.4-.5.9-.8 1.5-.8s1.4 0 2.3.2c1 .2 1.4.6 1.4 1.3a399.7 399.7 0 0 0-7.5 19.5 180.6 180.6 0 0 1 18.7-19.2c2.5-1.8 4.6-2.7 6.3-2.7Zm50.3.5 1.3-.1c5.2-.5 8.4-.7 9.5-.7 1.1 0 1.7.1 1.7.5s-.8.8-2.4 1.2c-1.6.5-5.4 1-11.6 1.7a119.9 119.9 0 0 1-2.8 5 62.5 62.5 0 0 0-6.1 14.8l-.1 2.3c0 1 .3 1.7.8 2.4 1 1 2.3 1.1 4 .2a54.5 54.5 0 0 0 15-14c.3-.4.7-.4 1-.2 1 .4-.7 3.1-5.2 8-4.3 4.6-8 7.5-10.9 8.6a13 13 0 0 1-4.2 1c-2.7 0-4.5-1.4-5.4-4l-.2-1.7c0-2.3 1.1-6 3.3-10.7-.4.7-1.7 2.4-4 5-.6.7-1 .7-1.4 0l-.1-.5c0-.2.1-.5.4-.9 3.3-4.1 5.9-7.6 7.8-10.4l2.2-4.3-2 .2c-.8 0-1.3-.2-1.6-.7-.4-.4-.4-1-.1-1.5.4-1.1 2.2-1.7 5.3-1.8.1-.2.3-.2.5-.2l5-9.5a30.4 30.4 0 0 1 3.2-5c.2-.5 1-.7 2.3-.7 1.4 0 2.3.4 2.7 1.1.2.3.3.8.3 1.4 0 .7-.2 1.4-.7 2.1a5 5 0 0 1-1.5 1.7 3 3 0 0 0-1.1 1.1l-4.9 8.6Zm42.8-31a9 9 0 0 1 3.1-.8c3 0 5 .8 5.9 2.4.5.8.8 1.6.8 2.2 0 4.6-3.8 10.4-11.6 17.3-6.8 6-13 11.2-18.8 15.5a167 167 0 0 0-5.9 15.8c2.5-3 5.5-6.5 9.2-10.4 7.5-7.8 12.8-11.6 15.8-11.6 1.4 0 2.2.7 2.3 2.2.1 1.5-.2 3-1 4.5l-2.2 4c-3.1 5.2-4.7 9.9-4.7 14 0 1.4.2 2.3.8 3 1 1 2.3 1.1 4 .2a54.9 54.9 0 0 0 15-14c.4-.4.7-.5 1-.3.3.2.5.3.5.5l-.2.6a54.4 54.4 0 0 1-11.9 13 15 15 0 0 1-9 3.5c-2.5 0-4.2-1.3-5-3.8a7 7 0 0 1-.4-2.2c0-.9 0-1.8.2-2.7.3-2.9 2.1-7.3 5.4-13.3.7-1.2 1-2 1-2.6 0-.5-.3-.8-.8-.8-1.1 0-3.2 1.4-6.3 4.1-2 2-5.2 5.7-9.3 11.1-4 5.5-6.4 8.4-7 8.7-2.3 1.2-3.8 1.8-4.4 1.8-.6 0-1 0-1-.2l.1-.7 1.6-4.5 6.5-17.8c-2.2 2.8-5 6-8.3 9.6-.5.6-.8.4-.8-.3a4 4 0 0 1 1-2.4l3.7-4.8c2-2.3 3.3-4 4.1-5.2-.6-.3-1-.8-1-1.4 0-.6.2-1 .7-1.3.4-.2 1.1-.1 2.1.3l1.9-3.1c8-17.4 15.6-27.4 22.9-30.2Zm5.6 7.5c1-1.6 1.4-3 1.4-4.1 0-1.1-.5-1.7-1.5-1.7s-2.3.6-4 1.9a73 73 0 0 0-20 28.5c4.3-2.9 9-6.7 13.7-11.4a57 57 0 0 0 10.4-13.2Zm29.2 22.2c3.7 0 5.5 1.8 5.5 5.3 0 1.8-.5 3.3-1.5 4.5a20.4 20.4 0 0 1-8.2 6.5c-3.8 1.9-7 3-9.6 3.1-1 .1-1.5-.2-1.6-.8 0-.3 0-.4.3-.5h.5a32.7 32.7 0 0 0 16-9.7 6 6 0 0 0 1.3-3.6c0-1.2-.6-1.7-1.7-1.7-.8 0-2 .4-3.5 1.1a35 35 0 0 0-10 7.8 28.2 28.2 0 0 0-7 10.8c-.3 1-.4 2.1-.4 3.2 0 1 .4 2 1.3 3s2.2 1.4 4 1.4c2 0 4.4-.6 7-1.6a37.2 37.2 0 0 0 17.7-14.1c.4-.6.7-.7 1-.3.4 0 .5.3.5.5l-.3.7c-2 3.4-4.6 6.4-7.7 9-6 5.1-11.9 7.7-17.6 7.7-4.8 0-8.2-1.4-10.2-4.3a7.5 7.5 0 0 1-1.1-4.2c0-1.6.4-3.6 1.3-5.8 1.7-3.8 5.3-7.8 10.9-11.9 5.5-4 9.9-6 13.1-6Zm78.8 15.4a54.1 54.1 0 0 1-12.6 13.6c-2.7 2-5.6 3-8.8 3-.6 0-1.4-.4-2.4-1-1-.5-1.6-1.4-2-2.4-.3-1.1-.5-2.2-.5-3.2 0-3.5.7-7 2-10.4l-2.7 4.3a41.3 41.3 0 0 1-6.1 7.7c-2.4 2.5-4.8 3.7-7.3 3.7-1.1 0-2.4-.3-4-1-2.6-1.1-4-3.4-4-6.6 0-4 1.4-8.1 4.1-12.4 2.8-4.2 4.5-6.4 5.3-6.7 1-.3 2-.4 2.8-.4 1 0 1.9.2 2.8.5 1 .4.8 1-.4 2-4.6 4.2-8 9-9.9 14.1-.7 2-1.1 3.8-1.1 5.2 0 1.3.3 2.2 1 2.7.8.4 1.5.6 2.1.6 1.6 0 3.9-1.2 6.7-3.4a72.6 72.6 0 0 0 15.1-20.1l3-5.3c1.1 0 2.4.3 3.8.8 1.5.5 2 1.2 1.5 2-3.2 5.4-5.5 9.4-6.8 12a28.2 28.2 0 0 0-2.8 11.3c0 1 .3 1.7.8 2.4 1 1 2.4 1 4.2.1 1.8-1 4.3-2.9 7.4-5.7 3-2.8 5.6-5.5 7.5-8.2.2-.4.6-.5 1-.3.3.2.5.3.5.5s0 .4-.2.6Zm25.6-14.6c1.6 0 2.3.8 2.3 2.4 0 1.7-.7 4-2.3 6.9-1.6 2.9-2.7 5.3-3.4 7.1a21 21 0 0 0-2 7.4c0 2 .3 3.1.8 3.8 1 1 2.4 1 4.2.1 1.8-1 4.2-2.9 7.4-5.7 3-2.8 5.6-5.5 7.5-8.2.3-.4.6-.5 1-.3.3.2.5.3.5.5s0 .4-.2.6a49.8 49.8 0 0 1-13 13.8 12.4 12.4 0 0 1-7.3 2.6c-2.3 0-3.9-.6-4.8-1.6-1-1-1.4-2.2-1.4-3.7a22.7 22.7 0 0 1 1.9-9.1c1.2-3 2.3-5.2 3.2-6.8a9.3 9.3 0 0 0 1.3-3.2c0-.5-.2-.8-.8-.8-1 0-3.1 1.4-6.1 4-2.1 2-5.2 5.7-9.3 11.1a81 81 0 0 1-7 8.7 16 16 0 0 1-4.5 1.8c-.6 0-1 0-1-.3l.3-.8a6142.9 6142.9 0 0 1 8.3-23.6l.6-2.1.4-1.5c.1-.4.4-.9.8-1.4.3-.5.8-.8 1.4-.8.6 0 1.4 0 2.4.2.9.2 1.4.6 1.4 1.3a399.7 399.7 0 0 0-7.5 19.5 180.6 180.6 0 0 1 18.6-19.2c2.6-1.8 4.7-2.7 6.3-2.7Zm23 .7c1.7 0 2.7.5 3 1.6.2.6.1 1.2-.2 1.8a14.5 14.5 0 0 0-1 2.1l-1 2a62.5 62.5 0 0 0-6 14.7l-.2 2.3c0 1 .3 1.7.8 2.4 1 1 2.3 1.1 4.1.2a54.9 54.9 0 0 0 15-14c.3-.4.6-.5 1-.3.2.2.4.3.4.5s0 .4-.2.6c-1 1.8-2.8 4.1-5.5 7-4.3 4.6-7.9 7.5-10.8 8.6a13 13 0 0 1-4.3 1c-2.7 0-4.5-1.4-5.3-4-.2-.4-.2-1-.2-1.7 0-2.3 1-6 3.2-10.7-.3.7-1.6 2.4-4 5-.5.7-1 .7-1.4 0v-.5c0-.2 0-.5.3-.9 3.4-4.1 6-7.6 7.8-10.4 0-.4 0-.8.2-1.3 1.4-3.8 2.6-5.8 3.6-6h.7Zm8-13.5-.8 3.2c0 .6-.4 1.6-1.3 3-.9 1.3-1.6 2-2 2-3 0-4.4-.7-4.4-2.1 0-.3 1.5-1.6 4.4-3.8l1.7-1.3c1-1 1.7-1.4 2-1.4.3 0 .4.1.4.4Zm10.5 19c0-3.3-1-5-2.9-5l-1.3.2c-.4.1-.6 0-.6-.2 0-.3.2-.6.6-1 .4-.4 1.8-.6 4.2-.9 2.8 0 4.6.5 5.3 1.3.7.8 1 1.6 1 2.4 0 .8-.6 2.8-1.9 6-1.2 3.2-1.8 5-2 5-2 6.1-2.9 10-2.7 11.5 6.1-8.2 10.1-13.3 12-15.3 4-4.4 6.8-7.4 8.5-9 4-3.7 7.4-6.1 10.4-7.4.8-.4 1.6-.5 2.3-.5 2.2 0 3.7.6 4.5 2 .3.3.5.6.5 1 0 .3-.1.6-.4 1-.2.4-.5.4-1 0-.6-.5-1.8-.7-3.7-.7-3.1 0-8.3 3.7-15.6 11-4.4 4.5-8.5 9.2-12.1 14.2-3.7 5-5.7 8.4-6 10.5 0 .6-.5.8-1.5.8s-1.8-.4-2.3-1.2c-.5-.9-.7-1.6-.7-2.1v-1.6l2.1-7.4 2.4-9-3.3 4.9c-.5.5-.9.7-1.2.4-.3-.2-.4-.4-.4-.6 0-.2 0-.4.2-.7 2.8-3.9 4.7-7 5.6-9.7Zm50-7c3.7 0 5.5 1.8 5.5 5.3 0 1.8-.5 3.3-1.5 4.5a20.4 20.4 0 0 1-8.2 6.5c-3.8 1.9-7 3-9.7 3.1-1 .1-1.4-.2-1.5-.8 0-.3 0-.4.3-.5h.5a32.7 32.7 0 0 0 16-9.7 6 6 0 0 0 1.3-3.6c0-1.2-.6-1.7-1.7-1.7-.9 0-2 .4-3.5 1.1a35 35 0 0 0-10 7.8 28.2 28.2 0 0 0-7 10.8c-.3 1-.5 2.1-.5 3.2 0 1 .5 2 1.4 3 .8 1 2.2 1.4 4 1.4 2 0 4.4-.6 7-1.6a37.2 37.2 0 0 0 17.6-14.1c.5-.6.8-.7 1.2-.3.2 0 .4.3.4.5l-.3.7c-2 3.4-4.6 6.4-7.7 9-6 5.1-11.9 7.7-17.6 7.7-4.8 0-8.2-1.4-10.2-4.3a7.5 7.5 0 0 1-1.1-4.2c0-1.6.4-3.6 1.3-5.8 1.7-3.8 5.3-7.8 10.8-11.9 5.6-4 10-6 13.2-6Zm22.3 32.1c-3.5 0-5.2-2-5.2-6.2s3-9.3 9-15.4l1-1.1.7-1c1-1.3 1.3-2.1 1.3-2.5l-.3-.9c-.3-.8-1.4-1.4-3.4-1.8-2-.3-3.5-.5-4.7-.5-6.1 8.6-9.6 13.5-10.6 14.7-1 1.2-1.6 1.7-1.9 1.5-.3-.2-.5-.4-.5-.7 0-.3.2-.7.6-1.2a83 83 0 0 0 9.4-14.3 3 3 0 0 1-1.8-.9c-.4-.4-.4-1.2-.1-2.2.3-1 1.4-2.5 3.1-4.2a17 17 0 0 1 7-4.7 3 3 0 0 1 1-.2c.9 0 .6 1.2-.8 3.7l-4 6.3 7.9.3 3.5-.1c1.2 0 2 .1 2.6.4.5.3.7.8.4 1.6a19 19 0 0 1-3.6 5.2 51 51 0 0 0-9 15 10 10 0 0 0-.8 3.4c0 2 .7 3 2.1 3 .5 0 1.4-.4 2.7-1.1a47 47 0 0 0 6.7-5.4c3-2.8 5.6-5.5 7.5-8.2.2-.4.5-.5 1-.3.3.2.5.3.5.5s0 .4-.2.6a49.8 49.8 0 0 1-13.2 13.9c-2.4 1.9-5 2.8-8 2.8Zm19.6-1.5c-1 1-1.1 1.8-.6 2.4.5.6 1 1 1.7 1s1.3-.2 2-.4c2.9-.8 5.7-2.6 8.5-5.2 2.7-2.6 4-5.3 4-8 0-1.4-1.6-3-5-4.8a56 56 0 0 1-2.5-1.4 8.6 8.6 0 0 1-3.5-3.7l-4.5 7c-.5.5-1 .7-1.4.3-.4-.3-.4-.7 0-1.2 2.7-3.8 4.5-7 5.4-9.6.5-3.7 3.2-7 8.1-10 5-3 9.4-4.5 13.5-4.5 2.6 0 4.4.5 5.4 1.4 1 1 1.6 1.8 1.6 2.7 0 .9-.3 1.9-.8 3a8 8 0 0 1-3 3.3c-.5.3-.8.2-1-.2-.2-.4 0-1 .8-1.7.7-.7 1.1-1.7 1.4-2.9.2-1.2-.4-2-1.7-2.2h-.6c-2.6 0-5.9 1-9.9 3-4 1.9-7 4.4-9.2 7.5a5.7 5.7 0 0 0-1.4 3.5c0 1.2.9 2.3 2.5 3.2a102.6 102.6 0 0 0 6.9 3.9c.6.4 1.5 1 2.4 2 1 .8 1.5 1.6 1.5 2.4.4 2-.6 4.2-2.8 6.7a26.3 26.3 0 0 1-18.5 7.9c-1.5 0-2.5-.6-3-1.7-.2-.2-.3-.6-.3-1.2s.5-1.5 1.6-2.8c1-1 2.7-2 4.9-3l.5.1c.1.2.2.3 0 .6 0 .2-.3.4-1 .7-.6.2-1.3.9-2 1.9Zm52.3-30.6c3.7 0 5.5 1.8 5.5 5.3 0 1.8-.5 3.3-1.5 4.5a20.4 20.4 0 0 1-8.2 6.5c-3.8 1.9-7 3-9.6 3.1-1 .1-1.5-.2-1.6-.8 0-.3 0-.4.3-.5h.6a32.7 32.7 0 0 0 16-9.7 6 6 0 0 0 1.2-3.6c0-1.2-.6-1.7-1.6-1.7s-2.1.4-3.6 1.1a35 35 0 0 0-10 7.8 28.2 28.2 0 0 0-7 10.8c-.3 1-.4 2.1-.4 3.2 0 1 .4 2 1.3 3s2.2 1.4 4 1.4c2 0 4.4-.6 7-1.6a37.2 37.2 0 0 0 17.7-14.1c.4-.6.8-.7 1.1-.3.3 0 .4.3.4.5l-.3.7c-2 3.4-4.6 6.4-7.7 9-6 5.1-11.9 7.7-17.5 7.7-4.9 0-8.3-1.4-10.3-4.3a7.5 7.5 0 0 1-1-4.2c0-1.6.3-3.6 1.2-5.8 1.7-3.8 5.3-7.8 10.9-11.9 5.5-4 9.9-6 13.1-6Z"/>
    <path fill="#F5BA41"
          d="M1053.4 244a202.7 202.7 0 0 0 58 139.5L1250.8 244h-197.5Zm21.7 29.7a20.1 20.1 0 1 1 40.3 0 20.1 20.1 0 0 1-40.3 0Zm46.7 77a20.1 20.1 0 1 1 0-40.3 20.1 20.1 0 0 1 0 40.3Zm40.3-51.6a20.1 20.1 0 1 1 0-40.2 20.1 20.1 0 0 1 0 40.2ZM1104.5 92.6l-20-20a240.4 240.4 0 0 0-69 166.5h28.2c.7-57 23.7-108.6 60.8-146.5ZM1254.3 28.5V.3a240.4 240.4 0 0 0-166.4 69l20 20c38-37.1 89.5-60.2 146.4-60.8ZM1114.7 387a202.7 202.7 0 0 0 139.6 57.9V247.3L1114.8 387Zm54.8 11.3a20.1 20.1 0 1 1-9.8-39 20.1 20.1 0 0 1 9.8 39Zm24.2-54.2a20.1 20.1 0 1 1 39-9.9 20.1 20.1 0 0 1-39 9.9Zm35.7 80.7a20.1 20.1 0 1 1-9.9-39 20.1 20.1 0 0 1 9.9 39ZM1262.6 239h197.5a202.7 202.7 0 0 0-57.9-139.5L1262.6 239Zm88.5-16.4a20.1 20.1 0 1 1 1.8-40.3 20.1 20.1 0 0 1-1.8 40.3Zm87.6-11a20.1 20.1 0 1 1-40.3-1.8 20.1 20.1 0 0 1 40.3 1.8Zm-45-38.8a20.1 20.1 0 1 1 1.7-40.2 20.1 20.1 0 0 1-1.8 40.2Z"/>
    <path fill="#F5BA41"
          d="M1469.8 239h28.2a240.4 240.4 0 0 0-69-166.4l-20 20c37.1 38 60.2 89.6 60.8 146.5ZM1402.2 383.5a202.6 202.6 0 0 0 58-139.6h-197.6l139.6 139.6Zm-.1-125.6a20.1 20.1 0 1 1 26.1 30.6 20.1 20.1 0 0 1-26.1-30.6Zm2.5 59.3a20.1 20.1 0 1 1-30.6 26.2 20.1 20.1 0 0 1 30.5-26.2ZM1365 263a20.1 20.1 0 1 1-30.6 26.2 20.1 20.1 0 0 1 30.6-26.2ZM1259.2 444.9a202.7 202.7 0 0 0 139.6-58l-139.6-139.6V445Zm89.6-88.5a20.1 20.1 0 1 1-1.6 40.3 20.1 20.1 0 0 1 1.6-40.3Zm-49.8-42.3a20.1 20.1 0 1 1-1.7 40.2 20.1 20.1 0 0 1 1.7-40.3Zm-8 66.5a20.1 20.1 0 1 1-1.7 40.3 20.1 20.1 0 0 1 1.7-40.3ZM1108 393.8l-20 20a240.4 240.4 0 0 0 166.3 69v-28.3c-56.9-.6-108.5-23.7-146.4-60.7ZM1254.3 38.1a202.7 202.7 0 0 0-139.6 58l139.6 139.6V38Zm-85.4 89.1a20.1 20.1 0 1 1 1.3-40.2 20.1 20.1 0 0 1-1.3 40.2Zm50.1 42a20.1 20.1 0 1 1 1.4-40.2 20.1 20.1 0 0 1-1.4 40.3Zm7.6-66.6a20.1 20.1 0 1 1 1.3-40.3 20.1 20.1 0 0 1-1.3 40.3Z"/>
    <path fill="#F5BA41"
          d="M1259.2 454.5v28.2a240.4 240.4 0 0 0 166.4-69l-20-20a212.3 212.3 0 0 1-146.4 60.8ZM1469.8 244c-.6 56.8-23.7 108.5-60.8 146.4l20 20a240.4 240.4 0 0 0 69-166.5h-28.2ZM1111.3 99.5a202.6 202.6 0 0 0-57.9 139.6H1251L1111.3 99.5Zm-4 123.8a20.1 20.1 0 1 1-25.2-31.4 20.1 20.1 0 0 1 25.3 31.4ZM1135 167a20.1 20.1 0 1 1-25.2-31.4 20.1 20.1 0 0 1 25.2 31.4Zm37.9 55.3a20.2 20.2 0 1 1-25.3-31.3 20.2 20.2 0 0 1 25.3 31.3ZM1043.7 244h-28.2a240.5 240.5 0 0 0 69 166.4l20-20a212.3 212.3 0 0 1-60.8-146.5Z"/>
</svg>